<!DOCTYPE svg PUBLIC "-//W3C//DTD SVG 1.1//EN" "http://www.w3.org/Graphics/SVG/1.1/DTD/svg11.dtd">
<!-- Uploaded to: SVG Repo, www.svgrepo.com, Transformed by: SVG Repo Mixer Tools -->
<svg fill="#85e411" height="256px" width="256px" version="1.1" id="Capa_1" xmlns="http://www.w3.org/2000/svg" xmlns:xlink="http://www.w3.org/1999/xlink" viewBox="-39 -39 468.00 468.00" xml:space="preserve" stroke="#85e411" stroke-width="0.0039" transform="matrix(-1, 0, 0, 1, 0, 0)">
<g id="SVGRepo_bgCarrier" stroke-width="0"/>
<g id="SVGRepo_tracerCarrier" stroke-linecap="round" stroke-linejoin="round" stroke="#CCCCCC" stroke-width="0.78"/>
<g id="SVGRepo_iconCarrier"> <g> <path d="M195,345c82.71,0,150-67.29,150-150S277.71,45,195,45S45,112.29,45,195S112.29,345,195,345z M195,75 c66.168,0,120,53.832,120,120s-53.832,120-120,120S75,261.168,75,195S128.831,75,195,75z"/> <path d="M375,0H15C6.716,0,0,6.716,0,15v360c0,8.284,6.716,15,15,15h360c8.284,0,15-6.716,15-15V15C390,6.716,383.284,0,375,0z M360,360H30V30h330V360z"/> </g> </g>
</svg>